HIERARCHY
ROOT Hips
{
	OFFSET 0.000000 0.000000 0.000000
	CHANNELS 6 Xposition Yposition Zposition Zrotation Yrotation Xrotation 
	JOINT LHipJoint
	{
		OFFSET 0.000000 0.000000 0.000000
		CHANNELS 3 Zrotation Yrotation Xrotation
		JOINT LeftUpLeg
		{
			OFFSET 1.363060 -1.794630 0.839290
			CHANNELS 3 Zrotation Yrotation Xrotation
			JOINT LeftLeg
			{
				OFFSET 2.448110 -6.726130 0.000000
				CHANNELS 3 Zrotation Yrotation Xrotation
				JOINT LeftFoot
				{
					OFFSET 2.562200 -7.039590 0.000000
					CHANNELS 3 Zrotation Yrotation Xrotation
					JOINT LeftToeBase
					{
						OFFSET 0.157640 -0.433110 2.322550
						CHANNELS 3 Zrotation Yrotation Xrotation
						End Site
						{
							OFFSET 0.000000 0.000000 0.000000
						}
					}
				}
			}
		}
	}
	JOINT RHipJoint
	{
		OFFSET 0.000000 0.000000 0.000000
		CHANNELS 3 Zrotation Yrotation Xrotation
		JOINT RightUpLeg
		{
			OFFSET -1.305520 -1.794630 0.839290
			CHANNELS 3 Zrotation Yrotation Xrotation
			JOINT RightLeg
			{
				OFFSET -2.542530 -6.985550 0.000000
				CHANNELS 3 Zrotation Yrotation Xrotation
				JOINT RightFoot
				{
					OFFSET -2.568260 -7.056230 0.000000
					CHANNELS 3 Zrotation Yrotation Xrotation
					JOINT RightToeBase
					{
						OFFSET -0.164730 -0.452590 2.363150
						CHANNELS 3 Zrotation Yrotation Xrotation
						End Site
						{
							OFFSET 0.000000 0.000000 0.000000
						}
					}
				}
			}
		}
	}
	JOINT LowerBack
	{
		OFFSET 0.000000 0.000000 0.000000
		CHANNELS 3 Zrotation Yrotation Xrotation
		JOINT Spine
		{
			OFFSET 0.028270 2.035590 -0.193380
			CHANNELS 3 Zrotation Yrotation Xrotation
			JOINT Spine1
			{
				OFFSET 0.056720 2.048850 -0.042750
				CHANNELS 3 Zrotation Yrotation Xrotation
				JOINT Neck
				{
					OFFSET 0.000000 0.000000 0.000000
					CHANNELS 3 Zrotation Yrotation Xrotation
					JOINT Neck1
					{
						OFFSET -0.054170 1.746240 0.172020
						CHANNELS 3 Zrotation Yrotation Xrotation
						JOINT Head
						{
							OFFSET 0.104070 1.761360 -0.123970
							CHANNELS 3 Zrotation Yrotation Xrotation
							End Site
							{
								OFFSET 0.000000 0.000000 0.000000
							}
						}
					}
				}
				JOINT LeftShoulder
				{
					OFFSET 0.000000 0.000000 0.000000
					CHANNELS 3 Zrotation Yrotation Xrotation
					JOINT LeftArm
					{
						OFFSET 3.362410 1.200890 -0.311210
						CHANNELS 3 Zrotation Yrotation Xrotation
						JOINT LeftForeArm
						{
							OFFSET 4.983000 -0.000000 -0.000000
							CHANNELS 3 Zrotation Yrotation Xrotation
							JOINT LeftHand
							{
								OFFSET 3.483560 -0.000000 -0.000000
								CHANNELS 3 Zrotation Yrotation Xrotation
								JOINT LeftFingerBase
								{
									OFFSET 0.000000 0.000000 0.000000
									CHANNELS 3 Zrotation Yrotation Xrotation
									JOINT LeftHandIndex1
									{
										OFFSET 0.715260 -0.000000 -0.000000
										CHANNELS 3 Zrotation Yrotation Xrotation
										End Site
										{
											OFFSET 0.000000 0.000000 0.000000
										}
									}
								}
								JOINT LThumb
								{
									OFFSET 0.000000 0.000000 0.000000
									CHANNELS 3 Zrotation Yrotation Xrotation
									End Site
									{
										OFFSET 0.000000 0.000000 0.000000
									}
								}
							}
						}
					}
				}
				JOINT RightShoulder
				{
					OFFSET 0.000000 0.000000 0.000000
					CHANNELS 3 Zrotation Yrotation Xrotation
					JOINT RightArm
					{
						OFFSET -3.136600 1.374050 -0.404650
						CHANNELS 3 Zrotation Yrotation Xrotation
						JOINT RightForeArm
						{
							OFFSET -5.241900 -0.000000 -0.000000
							CHANNELS 3 Zrotation Yrotation Xrotation
							JOINT RightHand
							{
								OFFSET -3.444170 -0.000000 -0.000000
								CHANNELS 3 Zrotation Yrotation Xrotation
								JOINT RightFingerBase
								{
									OFFSET 0.000000 0.000000 0.000000
									CHANNELS 3 Zrotation Yrotation Xrotation
									JOINT RightHandIndex1
									{
										OFFSET -0.622530 -0.000000 -0.000000
										CHANNELS 3 Zrotation Yrotation Xrotation
										End Site
										{
											OFFSET 0.000000 0.000000 0.000000
										}
									}
								}
								JOINT RThumb
								{
									OFFSET 0.000000 0.000000 0.000000
									CHANNELS 3 Zrotation Yrotation Xrotation
									End Site
									{
										OFFSET 0.000000 0.000000 0.000000
									}
								}
							}
						}
					}
				}
			}
		}
	}
}
MOTION
Frames: 4
Frame Time: 0.008333
-20.995724 17.344785 -0.707798 11.794707 77.777072 47.494686 -8.484133 -1.327595 3.502379 -9.385151 -9.271102 -71.598244 1.178404 3.418739 65.988281 3.007898 14.546459 -3.432291 1.841500 0.000000 -28.955000 12.332946 -3.185684 1.281735 -0.355385 -6.647866 -10.272829 1.752197 0.178482 -1.731500 0.173969 4.024795 23.164024 1.801000 0.000001 -70.192400 -7.285435 2.681756 -4.381544 -1.997588 3.053869 -4.050275 -3.218728 2.913640 -0.022794 3.067066 -3.158340 -2.871198 -0.275503 -0.097174 1.242947 0.000000 0.000000 0.000000 6.816224 17.069954 1.951100 -47.109254 54.760420 37.885810 -2.219570 -61.473040 0.000617 -4.918369 -3.807114 0.159106 -0.071794 -0.055613 -0.000000 0.000000 0.000000 0.000000 0.000000 0.000000 0.000000 -5.316318 2.188172 -3.415196 60.921717 54.176614 11.477952 -179.733906 86.032289 179.970687 -1.314142 9.062210 -0.103966 -0.092897 -0.677222 -0.000000 0.000000 0.000000 0.000000 0.000000 0.000000 0.000000 
-20.755227 17.416901 -0.704835 12.915342 78.199706 48.713226 -8.307835 -1.184407 3.771624 -9.434969 -10.007235 -71.251408 0.979374 3.190897 62.978604 2.981962 14.337314 -2.860160 2.022600 -0.000000 -29.499200 12.515344 -3.249240 1.081810 -0.439420 -7.671703 -9.807301 1.714249 0.134352 -2.122969 0.056207 3.601048 24.820258 1.727400 -0.000001 -66.631700 -7.603028 2.715101 -4.420274 -2.035290 3.110735 -4.050829 -3.060904 2.969766 0.021416 2.823097 -3.186588 -2.811738 -0.159829 -0.089983 1.259456 0.000000 0.000000 0.000000 7.060325 17.128167 1.949694 -47.584681 54.819293 36.543207 -2.182359 -62.120267 0.002197 -4.782993 -3.994431 0.162758 -0.075476 -0.045346 -0.000000 0.000000 0.000000 0.000000 0.000000 0.000000 0.000000 -6.023654 2.132477 -3.424222 59.855546 54.510745 10.515467 -179.717347 86.268892 179.976994 -0.634045 8.441660 -0.041543 -0.110534 -0.664960 -0.000000 0.000000 0.000000 0.000000 0.000000 0.000000 0.000000 
-20.513509 17.477357 -0.699490 14.271585 78.684367 50.169530 -8.122149 -1.021005 4.047407 -9.507436 -10.762268 -70.838758 0.776686 2.958701 59.901830 2.962103 14.165768 -2.389490 2.186000 0.000000 -30.132200 12.689297 -3.302955 0.896566 -0.482969 -8.565153 -9.338373 1.660982 0.106815 -2.286167 -0.083209 2.615855 25.683328 1.283400 0.000000 -62.853701 -7.923414 2.717941 -4.474190 -2.077288 3.136671 -4.051793 -2.924609 2.995192 0.076472 2.642455 -3.229795 -2.761852 -0.057125 -0.083566 1.273019 0.000000 0.000000 0.000000 7.307321 17.187765 1.942463 -48.041202 54.753083 35.358576 -2.127040 -62.912297 0.003767 -4.597007 -4.178929 0.164009 -0.078752 -0.034853 0.000000 0.000000 0.000000 0.000000 0.000000 0.000000 0.000000 -6.609717 2.066708 -3.411712 58.866025 54.757336 9.760563 -179.707574 86.590285 179.983709 0.044713 7.810784 0.012791 -0.126248 -0.650943 -0.000000 0.000000 0.000000 0.000000 0.000000 0.000000 0.000000 
-20.270416 17.525570 -0.692331 15.755275 79.228086 51.764252 -7.937546 -0.844649 4.324342 -9.577466 -11.494315 -70.394789 0.570718 2.728335 56.808182 2.940180 13.992010 -1.999431 2.330400 -0.000000 -30.935400 12.839849 -3.357037 0.743981 -0.450246 -9.216140 -8.829623 1.585254 0.096484 -2.274658 -0.249503 1.018123 25.839304 0.452100 -0.000000 -59.120200 -8.223788 2.701347 -4.556506 -2.119846 3.141408 -4.057660 -2.812202 2.999437 0.135516 2.522856 -3.270764 -2.717668 0.030261 -0.078163 1.284991 0.000000 0.000000 0.000000 7.519247 17.230872 1.923998 -48.443586 54.602473 34.301476 -2.054251 -63.873923 0.005230 -4.374318 -4.336894 0.162159 -0.081626 -0.024424 0.000000 0.000000 0.000000 0.000000 0.000000 0.000000 0.000000 -7.071020 2.014251 -3.372517 57.930161 54.898415 9.201546 -179.703891 86.966299 179.990472 0.697617 7.191398 0.057337 -0.139494 -0.635841 0.000000 0.000000 0.000000 0.000000 0.000000 0.000000 0.000000 
